<svg xmlns="http://www.w3.org/2000/svg" xmlns:xlink="http://www.w3.org/1999/xlink" width="800" zoomAndPan="magnify" viewBox="0 0 600 374.999991" height="500" preserveAspectRatio="xMidYMid meet" version="1.0"><defs><g/><clipPath id="658aa2fa5d"><path d="M 196 217 L 213.5625 217 L 213.5625 234 L 196 234 Z M 196 217 " clip-rule="nonzero"/></clipPath><clipPath id="75c63660b2"><path d="M 25.3125 106 L 113 106 L 113 269 L 25.3125 269 Z M 25.3125 106 " clip-rule="nonzero"/></clipPath><clipPath id="47402aae4e"><path d="M 196 139 L 213.5625 139 L 213.5625 156 L 196 156 Z M 196 139 " clip-rule="nonzero"/></clipPath><clipPath id="507b265861"><path d="M 196 177 L 213.5625 177 L 213.5625 195 L 196 195 Z M 196 177 " clip-rule="nonzero"/></clipPath><clipPath id="9c6114b71e"><path d="M 118 78.300781 L 124 78.300781 L 124 296.550781 L 118 296.550781 Z M 118 78.300781 " clip-rule="nonzero"/></clipPath></defs><path fill="#00a1ff" d="M 163.816406 252.757812 C 163.816406 257.117188 167.304688 260.816406 171.886719 260.816406 C 176.464844 260.816406 179.953125 257.335938 179.953125 252.757812 C 179.734375 248.40625 176.246094 244.699219 171.886719 244.699219 C 167.523438 244.699219 163.816406 248.183594 163.816406 252.757812 Z M 163.816406 252.757812 " fill-opacity="1" fill-rule="nonzero"/><g clip-path="url(#658aa2fa5d)"><path fill="#00a1ff" d="M 196.746094 225.316406 C 196.746094 229.890625 200.457031 233.59375 205.035156 233.59375 C 209.617188 233.59375 213.324219 229.890625 213.324219 225.316406 C 213.324219 220.746094 209.617188 217.039062 205.035156 217.039062 C 200.457031 217.039062 196.746094 220.746094 196.746094 225.316406 Z M 196.746094 225.316406 " fill-opacity="1" fill-rule="nonzero"/></g><path fill="#00a1ff" d="M 163.816406 122.089844 C 163.816406 126.441406 167.304688 130.148438 171.886719 130.148438 C 176.246094 130.148438 179.953125 126.664062 179.953125 122.308594 C 179.953125 117.730469 176.246094 114.03125 171.886719 114.03125 C 167.523438 114.03125 163.816406 117.515625 163.816406 122.089844 Z M 163.816406 122.089844 " fill-opacity="1" fill-rule="nonzero"/><g clip-path="url(#75c63660b2)"><path fill="#00a1ff" d="M 67.851562 124.484375 C 67.851562 131.453125 70.035156 138.207031 74.175781 143.652344 C 77.882812 148.222656 82.902344 151.273438 88.789062 152.796875 C 90.101562 153.015625 90.753906 154.101562 90.753906 155.195312 C 90.535156 156.5 89.441406 157.152344 88.351562 157.152344 C 88.289062 157.152344 87.761719 157.152344 87.699219 157.152344 C 81.8125 155.628906 76.359375 152.363281 72.210938 148.003906 C 68.070312 149.96875 60.4375 154.753906 60.21875 160.417969 C 60.21875 161.726562 59.347656 162.597656 58.035156 162.597656 C 56.949219 162.597656 55.859375 161.507812 55.859375 160.417969 C 56.292969 152.363281 65.019531 146.917969 69.59375 144.523438 C 66.105469 139.078125 64.148438 132.980469 63.925781 126.441406 C 52.367188 126.441406 42.988281 136.464844 42.988281 148.875 C 42.988281 151.273438 43.425781 153.667969 44.078125 155.847656 C 44.300781 156.714844 44.078125 157.808594 43.207031 158.242188 C 32.082031 164.992188 25.542969 177.84375 25.542969 191.78125 C 25.542969 198.53125 27.066406 205.28125 30.339844 211.378906 C 30.558594 211.816406 30.558594 212.035156 30.558594 212.46875 C 30.558594 212.535156 30.558594 213.058594 30.558594 213.121094 C 30.558594 213.558594 30.558594 213.992188 30.558594 214.648438 C 30.558594 232.722656 41.242188 247.75 55.640625 251.453125 C 54.984375 244.046875 56.730469 236.640625 60.4375 230.328125 C 53.894531 227.714844 48.441406 222.703125 45.386719 216.386719 C 44.734375 215.300781 45.171875 213.992188 46.257812 213.558594 C 47.351562 213.121094 48.660156 213.339844 49.09375 214.433594 C 49.09375 214.433594 49.09375 214.433594 49.09375 214.648438 C 52.148438 220.09375 56.949219 224.449219 62.835938 226.410156 C 62.859375 226.363281 63.03125 226.015625 63.054688 225.972656 C 68.507812 220.09375 75.921875 216.386719 83.992188 215.300781 C 84.648438 207.460938 89.664062 200.710938 97.078125 198.097656 C 98.171875 197.664062 99.476562 198.097656 99.914062 199.183594 C 100.347656 200.277344 99.914062 201.582031 98.824219 202.015625 C 98.605469 202.015625 98.605469 202.015625 98.386719 202.234375 C 97.949219 202.449219 87.699219 206.15625 88.351562 217.261719 C 88.351562 218.566406 87.480469 219.4375 86.171875 219.4375 C 85.953125 219.4375 73.960938 220.09375 66.324219 228.804688 C 61.3125 234.46875 59.128906 242.304688 59.78125 251.890625 C 60.21875 251.890625 60.652344 252.105469 61.089844 252.105469 C 61.964844 252.105469 62.617188 252.542969 63.054688 253.410156 C 69.160156 266.261719 84.429688 271.925781 97.511719 266.046875 C 106.675781 261.90625 112.566406 252.542969 112.566406 242.523438 C 112.566406 241.324219 112.566406 231.746094 112.566406 230.542969 C 100.347656 227.929688 92.71875 239.691406 92.277344 240.347656 C 91.625 241.433594 90.316406 241.652344 89.222656 241 C 88.136719 240.347656 87.917969 239.039062 88.570312 237.949219 C 88.570312 237.734375 97.730469 223.578125 112.566406 225.972656 C 112.566406 221.640625 112.566406 186.96875 112.566406 182.632812 C 111.472656 180.890625 106.894531 174.796875 100.785156 173.484375 C 97.292969 172.832031 93.804688 173.703125 90.972656 175.664062 C 89.222656 177.84375 79.628906 190.253906 68.507812 192 C 67.636719 192.21875 66.761719 192.21875 65.890625 192.21875 C 63.925781 192.21875 61.746094 191.78125 59.78125 190.90625 C 58.910156 195.484375 54.984375 199.183594 48.222656 202.015625 C 48.007812 202.015625 47.789062 202.234375 47.351562 202.234375 C 46.042969 202.234375 45.171875 201.363281 45.171875 200.054688 C 45.171875 199.183594 45.605469 198.3125 46.476562 198.097656 C 52.148438 195.917969 55.199219 193.085938 55.640625 189.820312 C 56.292969 184.375 49.53125 178.277344 46.914062 176.316406 C 45.824219 175.664062 45.605469 174.355469 46.257812 173.269531 C 46.914062 172.179688 48.222656 171.964844 49.3125 172.617188 C 49.3125 172.617188 49.53125 172.617188 49.53125 172.832031 C 49.96875 173.050781 57.601562 178.929688 59.566406 185.898438 C 61.964844 187.640625 64.800781 188.292969 67.851562 187.859375 C 77.882812 186.335938 87.699219 173.050781 87.699219 173.050781 C 87.917969 172.832031 88.136719 172.617188 88.136719 172.617188 C 92.058594 169.785156 97.078125 168.476562 101.660156 169.566406 C 105.800781 170.65625 109.730469 172.832031 112.566406 176.101562 C 112.566406 173.820312 112.566406 162.425781 112.566406 141.910156 C 111.386719 141.910156 110.730469 141.910156 110.601562 141.910156 C 95.988281 141.910156 90.101562 129.058594 90.101562 129.058594 C 89.664062 127.96875 90.101562 126.664062 91.1875 126.226562 C 92.277344 125.789062 93.589844 126.226562 94.023438 127.316406 C 97.511719 134.066406 104.710938 138.207031 112.347656 137.550781 C 112.347656 136.726562 112.347656 130.101562 112.347656 129.273438 C 112.347656 116.644531 102.3125 106.625 89.882812 106.625 C 79.195312 106.625 70.035156 114.03125 67.851562 124.484375 Z M 67.851562 124.484375 " fill-opacity="1" fill-rule="nonzero"/></g><g clip-path="url(#47402aae4e)"><path fill="#00a1ff" d="M 196.746094 147.570312 C 196.746094 152.144531 200.457031 155.847656 205.035156 155.847656 C 209.617188 155.847656 213.324219 152.144531 213.324219 147.570312 C 213.324219 142.996094 209.617188 139.292969 205.035156 139.292969 C 200.457031 139.292969 196.746094 142.996094 196.746094 147.570312 Z M 196.746094 147.570312 " fill-opacity="1" fill-rule="nonzero"/></g><g clip-path="url(#507b265861)"><path fill="#00a1ff" d="M 196.746094 185.898438 C 196.746094 190.472656 200.457031 194.175781 205.035156 194.175781 C 209.617188 194.175781 213.324219 190.472656 213.324219 185.898438 C 213.324219 181.542969 209.617188 177.625 205.035156 177.625 C 200.457031 177.625 196.746094 181.328125 196.746094 185.898438 Z M 196.746094 185.898438 " fill-opacity="1" fill-rule="nonzero"/></g><g clip-path="url(#9c6114b71e)"><path fill="#00a1ff" d="M 118.886719 294.140625 C 118.886719 272.792969 118.886719 102.054688 118.886719 80.710938 C 118.886719 79.40625 119.757812 78.535156 121.070312 78.535156 C 122.378906 78.535156 123.246094 79.40625 123.246094 80.710938 C 123.246094 102.054688 123.246094 272.792969 123.246094 294.140625 C 123.246094 295.445312 122.378906 296.3125 121.070312 296.3125 C 119.757812 296.3125 118.886719 295.445312 118.886719 294.140625 Z M 118.886719 294.140625 " fill-opacity="1" fill-rule="nonzero"/></g><path fill="#00a1ff" d="M 127.613281 154.753906 C 126.300781 154.753906 125.429688 153.886719 125.429688 152.582031 C 125.429688 151.273438 126.300781 150.402344 127.613281 150.402344 C 128.992188 150.402344 135.898438 150.402344 148.332031 150.402344 C 158.015625 137.597656 163.394531 130.480469 164.472656 129.058594 C 165.125 128.1875 166.652344 127.96875 167.523438 128.621094 C 168.394531 129.273438 168.613281 130.800781 167.960938 131.671875 C 166.257812 133.894531 152.648438 151.664062 150.949219 153.886719 C 150.730469 154.539062 150.078125 154.753906 149.421875 154.753906 C 145.058594 154.753906 129.792969 154.753906 127.613281 154.753906 Z M 127.613281 154.753906 " fill-opacity="1" fill-rule="nonzero"/><path fill="#00a1ff" d="M 164.6875 245.574219 C 163.601562 244.164062 158.148438 237.121094 148.332031 224.449219 C 135.898438 224.449219 128.992188 224.449219 127.613281 224.449219 C 126.300781 224.449219 125.429688 223.578125 125.429688 222.269531 C 125.429688 220.964844 126.300781 220.09375 127.613281 220.09375 C 129.792969 220.09375 147.242188 220.09375 149.421875 220.09375 C 150.078125 220.09375 150.730469 220.3125 151.164062 220.964844 C 152.867188 223.160156 166.476562 240.757812 168.175781 242.960938 C 168.832031 243.832031 168.613281 245.351562 167.742188 246.007812 C 167.304688 246.226562 166.871094 246.445312 166.433594 246.445312 C 165.777344 246.445312 165.125 246.226562 164.6875 245.574219 Z M 164.6875 245.574219 " fill-opacity="1" fill-rule="nonzero"/><path fill="#00a1ff" d="M 127.613281 188.292969 C 126.300781 188.292969 125.429688 187.425781 125.429688 186.121094 C 125.429688 184.8125 126.300781 183.941406 127.613281 183.941406 C 134.285156 183.941406 187.675781 183.941406 194.347656 183.941406 C 195.660156 183.941406 196.53125 184.8125 196.53125 186.121094 C 196.53125 187.425781 195.441406 188.292969 194.347656 188.292969 C 181 188.292969 134.285156 188.292969 127.613281 188.292969 Z M 127.613281 188.292969 " fill-opacity="1" fill-rule="nonzero"/><path fill="#00a1ff" d="M 127.613281 170.871094 C 126.300781 170.871094 125.429688 170.003906 125.429688 168.695312 C 125.429688 167.390625 126.300781 166.519531 127.613281 166.519531 C 130.113281 166.519531 142.617188 166.519531 165.125 166.519531 C 174.15625 154.367188 179.167969 147.617188 180.171875 146.261719 C 180.613281 145.609375 181.265625 145.390625 181.917969 145.390625 C 183.160156 145.390625 193.105469 145.390625 194.347656 145.390625 C 195.660156 145.390625 196.53125 146.261719 196.53125 147.570312 C 196.53125 148.875 195.660156 149.75 194.347656 149.75 C 193.59375 149.75 189.8125 149.75 183.007812 149.75 C 174.109375 161.898438 169.167969 168.652344 168.175781 170.003906 C 167.742188 170.65625 167.089844 170.871094 166.433594 170.871094 C 158.667969 170.871094 131.496094 170.871094 127.613281 170.871094 Z M 127.613281 170.871094 " fill-opacity="1" fill-rule="nonzero"/><path fill="#00a1ff" d="M 181.917969 227.496094 C 181.265625 227.496094 180.613281 227.0625 180.171875 226.625 C 179.167969 225.277344 174.15625 218.523438 165.125 206.375 C 142.617188 206.375 130.113281 206.375 127.613281 206.375 C 126.300781 206.375 125.429688 205.5 125.429688 204.195312 C 125.429688 202.886719 126.300781 202.015625 127.613281 202.015625 C 131.472656 202.015625 162.355469 202.015625 166.21875 202.015625 C 166.871094 202.015625 167.523438 202.234375 167.960938 202.886719 C 168.960938 204.238281 173.980469 210.988281 183.007812 223.144531 C 189.8125 223.144531 193.59375 223.144531 194.347656 223.144531 C 195.660156 223.144531 196.53125 224.011719 196.53125 225.316406 C 196.53125 226.625 195.660156 227.496094 194.347656 227.496094 C 186.890625 227.496094 182.75 227.496094 181.917969 227.496094 Z M 181.917969 227.496094 " fill-opacity="1" fill-rule="nonzero"/><g fill="#000000" fill-opacity="1"><g transform="translate(252.240283, 228.374985)"><g><path d="M 3.691406 -26.53125 C 3.804688 -10.152344 16.609375 0.691406 37.144531 0.691406 C 56.058594 0.691406 68.519531 -9.6875 68.632812 -24.800781 C 68.75 -41.066406 56.523438 -45.21875 42.679688 -47.753906 C 29.300781 -50.292969 22.953125 -51.675781 22.953125 -58.25 C 22.953125 -64.480469 28.261719 -67.59375 35.644531 -67.59375 C 44.0625 -67.59375 49.253906 -62.867188 50.0625 -56.058594 L 67.019531 -56.058594 C 66.789062 -71.515625 54.675781 -81.4375 35.644531 -81.4375 C 17.417969 -81.4375 5.535156 -71.285156 5.535156 -56.984375 C 5.535156 -40.601562 17.53125 -36.21875 31.144531 -33.683594 C 44.640625 -31.027344 51.214844 -29.644531 51.214844 -22.839844 C 51.214844 -16.496094 45.332031 -13.035156 37.375 -13.035156 C 27.453125 -13.035156 21.222656 -18.457031 20.648438 -26.300781 Z M 3.691406 -26.53125 "/></g></g></g><g fill="#000000" fill-opacity="1"><g transform="translate(324.332575, 228.374985)"><g><path d="M 45.21875 -29.644531 C 45.21875 -18.6875 40.488281 -12.804688 32.414062 -12.804688 C 24.339844 -12.804688 20.878906 -17.996094 20.878906 -28.605469 L 20.878906 -59.289062 L 4.613281 -59.289062 L 4.613281 -26.414062 C 4.613281 -5.421875 15.917969 0.691406 28.144531 0.691406 C 36.566406 0.691406 41.757812 -2.539062 45.5625 -7.152344 L 47.0625 0 L 61.480469 0 L 61.480469 -59.289062 L 45.21875 -59.289062 Z M 45.21875 -29.644531 "/></g></g></g><g fill="#000000" fill-opacity="1"><g transform="translate(391.464918, 228.374985)"><g><path d="M 76.59375 -59.980469 C 67.59375 -59.980469 60.675781 -56.289062 56.523438 -49.945312 C 52.832031 -57.445312 46.023438 -60.097656 38.757812 -59.980469 C 30.105469 -59.867188 24.914062 -56.523438 21.339844 -51.90625 L 19.839844 -59.289062 L 5.652344 -59.289062 L 5.652344 0 L 21.917969 0 L 21.917969 -32.296875 C 21.917969 -41.179688 26.53125 -46.601562 33.566406 -46.601562 C 40.71875 -46.601562 43.949219 -41.988281 43.949219 -33.105469 L 43.949219 0 L 60.210938 0 L 60.210938 -32.414062 C 60.210938 -41.410156 64.941406 -46.601562 71.976562 -46.601562 C 79.015625 -46.601562 82.246094 -41.988281 82.246094 -33.105469 L 82.246094 0 L 98.507812 0 L 98.507812 -34.027344 C 98.507812 -53.0625 88.820312 -59.980469 76.59375 -59.980469 Z M 76.59375 -59.980469 "/></g></g></g><g fill="#000000" fill-opacity="1"><g transform="translate(494.585757, 228.374985)"><g><path d="M 1.152344 0 L 20.417969 0 L 37.949219 -27.683594 L 54.90625 0 L 75.554688 0 L 49.253906 -41.527344 L 74.285156 -80.746094 L 54.90625 -80.746094 L 38.640625 -55.136719 L 22.953125 -80.746094 L 2.421875 -80.746094 L 27.453125 -41.296875 Z M 1.152344 0 "/></g></g></g></svg>